<svg width="214" height="52" viewBox="0 0 214 52" fill="none" xmlns="http://www.w3.org/2000/svg">
<path d="M14.1942 51.1683C13.7888 51.0861 13.3944 50.9328 13.0329 50.7136C8.31649 47.8104 4.6299 43.5924 2.36755 38.5145C0.0504283 33.316 -0.579523 27.6081 0.537956 22.0152C3.50147 7.20852 17.9575 -2.42703 32.7641 0.536493C47.5707 3.50001 57.2062 17.9506 54.2482 32.7572C53.4867 36.5534 51.9749 40.0702 49.7563 43.2035C47.6255 46.2108 44.9578 48.7197 41.8135 50.6643C40.329 51.6284 38.3186 51.3491 37.1628 49.9577L25.1828 35.54C24.3063 34.4828 24.1201 33.0202 24.7007 31.7767C25.2814 30.5332 26.5248 29.7389 27.8998 29.7335C30.1347 29.728 32.0794 28.123 32.5176 25.9264C33.027 23.3627 31.3618 20.8648 28.8036 20.3554C26.24 19.8405 23.7421 21.5112 23.2326 24.0694L18.3683 48.391C18.1437 49.5304 17.3714 50.4836 16.3087 50.9437C15.6349 51.234 14.9008 51.3107 14.1997 51.1683H14.1942ZM31.3727 7.48241C20.3951 5.28579 9.68047 12.4289 7.48386 23.4065C6.6567 27.5533 7.12232 31.7822 8.83688 35.6276C9.76811 37.7202 11.028 39.6155 12.5618 41.2589L16.2758 22.678C17.5521 16.2853 23.7914 12.1276 30.184 13.404C36.5767 14.6803 40.7343 20.9196 39.458 27.3122C38.7952 30.6318 36.7574 33.4036 34.013 35.0853L40.4988 42.8913C44.0046 39.9497 46.382 35.9508 47.2968 31.3659C49.4934 20.3882 42.3503 9.67356 31.3727 7.47694V7.48241ZM87.8985 28.4516C88.9886 27.9696 89.8322 27.2739 90.4293 26.3646C91.0209 25.4553 91.3222 24.3761 91.3222 23.1217C91.3222 21.8673 91.0264 20.7607 90.4293 19.8459C89.8322 18.9311 88.9886 18.2245 87.8985 17.737C86.803 17.2494 85.5047 17.0029 83.9928 17.0029H76.6909V33.8747H80.5966V29.1747H83.9928C84.0531 29.1747 84.1133 29.1747 84.1736 29.1747L87.411 33.8747H91.6289L87.8602 28.4681C87.8602 28.4681 87.8821 28.4571 87.8931 28.4516H87.8985ZM86.4743 20.9579C87.0659 21.4729 87.3672 22.1959 87.3672 23.1272C87.3672 24.0584 87.0714 24.765 86.4743 25.2854C85.8772 25.8058 84.9788 26.0688 83.7737 26.0688H80.5911V20.1856H83.7737C84.9788 20.1856 85.8772 20.443 86.4743 20.9579ZM103.729 21.5715C102.65 21.0018 101.429 20.7169 100.065 20.7169C98.7008 20.7169 97.4574 21.0018 96.3892 21.5715C95.321 22.1412 94.4774 22.93 93.8584 23.9324C93.2394 24.9349 92.9327 26.0907 92.9327 27.3889C92.9327 28.6872 93.2394 29.8211 93.8584 30.8236C94.4774 31.826 95.321 32.6203 96.3892 33.1955C97.4574 33.7761 98.6844 34.061 100.065 34.061C101.445 34.061 102.65 33.7706 103.729 33.1955C104.803 32.6148 105.647 31.826 106.26 30.8236C106.868 29.8211 107.175 28.6762 107.175 27.3889C107.175 26.1016 106.868 24.9129 106.26 23.916C105.647 22.919 104.803 22.1357 103.729 21.566V21.5715ZM102.935 29.3062C102.645 29.843 102.25 30.2593 101.752 30.5497C101.254 30.84 100.689 30.9824 100.065 30.9824C99.4403 30.9824 98.8761 30.84 98.3776 30.5497C97.8792 30.2593 97.4793 29.8485 97.1835 29.3062C96.8877 28.7694 96.7398 28.1284 96.7398 27.3889C96.7398 26.6494 96.8877 25.9921 97.1835 25.4607C97.4793 24.9294 97.8792 24.5185 98.3776 24.2337C98.8761 23.9434 99.4403 23.8009 100.065 23.8009C100.689 23.8009 101.254 23.9434 101.752 24.2337C102.25 24.524 102.645 24.9349 102.935 25.4607C103.226 25.9921 103.368 26.633 103.368 27.3889C103.368 28.1449 103.226 28.7694 102.935 29.3062ZM119.396 22.1138C118.301 21.1825 116.767 20.7169 114.795 20.7169C113.765 20.7169 112.751 20.8539 111.76 21.1278C110.763 21.4016 109.914 21.7851 109.207 22.2836L110.555 24.9129C111.021 24.5459 111.585 24.2501 112.253 24.031C112.921 23.8119 113.601 23.7078 114.291 23.7078C115.304 23.7078 116.055 23.9324 116.542 24.3816C117.03 24.8308 117.276 25.4607 117.276 26.2605H114.285C112.965 26.2605 111.897 26.4248 111.081 26.7535C110.259 27.0822 109.662 27.5368 109.284 28.1175C108.906 28.6981 108.72 29.3719 108.72 30.1443C108.72 30.9167 108.912 31.5521 109.3 32.1437C109.684 32.7408 110.243 33.2064 110.966 33.5515C111.689 33.8966 112.554 34.0719 113.568 34.0719C114.707 34.0719 115.638 33.8528 116.361 33.4201C116.849 33.1242 117.238 32.7408 117.517 32.2642V33.8747H121.034V26.4741C121.034 24.4966 120.486 23.045 119.396 22.1138ZM116.192 31.092C115.693 31.3878 115.129 31.5357 114.504 31.5357C113.847 31.5357 113.327 31.3932 112.949 31.1139C112.571 30.8345 112.384 30.4511 112.384 29.969C112.384 29.5363 112.549 29.1747 112.877 28.8844C113.206 28.5941 113.814 28.4516 114.696 28.4516H117.276V29.7773C117.052 30.3579 116.69 30.7962 116.192 31.092ZM127.783 22.6122V20.9086H124.189V33.8747H127.947V27.7505C127.947 26.5125 128.265 25.6032 128.9 25.017C129.536 24.4309 130.368 24.1351 131.393 24.1351C131.535 24.1351 131.672 24.1351 131.803 24.146C131.929 24.1515 132.077 24.168 132.236 24.1844V20.7114C131.015 20.7114 129.979 20.947 129.125 21.4236C128.577 21.7303 128.128 22.1247 127.777 22.6068L127.783 22.6122ZM134.46 33.8802H138.218V20.9141H134.46V33.8802ZM152.115 21.3359C151.305 20.9251 150.384 20.7224 149.354 20.7224C148.248 20.7224 147.256 20.9579 146.391 21.4236C145.881 21.6974 145.438 22.0426 145.065 22.4589V20.9196H141.472V33.8857H145.23V27.4766C145.23 26.6713 145.361 26.014 145.629 25.4991C145.892 24.9842 146.265 24.6007 146.736 24.3542C147.207 24.1077 147.744 23.9817 148.341 23.9817C149.174 23.9817 149.826 24.2337 150.28 24.7267C150.74 25.2252 150.965 25.9976 150.965 27.0384V33.8857H154.723V26.4632C154.723 25.143 154.487 24.0639 154.022 23.2203C153.556 22.3767 152.915 21.7522 152.104 21.3414L152.115 21.3359ZM167.7 22.5575C167.311 22.0645 166.845 21.6755 166.303 21.3852C165.465 20.9415 164.501 20.7224 163.411 20.7224C162.205 20.7224 161.115 20.9798 160.146 21.4948C159.171 22.0097 158.393 22.7382 157.807 23.675C157.221 24.6171 156.925 25.7182 156.925 26.9891C156.925 28.2599 157.221 29.3391 157.807 30.2812C158.393 31.2234 159.171 31.952 160.146 32.4724C161.115 32.9928 162.205 33.2557 163.411 33.2557C164.501 33.2557 165.465 33.0311 166.303 32.5819C166.757 32.3354 167.163 32.0177 167.508 31.6288V32.193C167.508 33.3653 167.207 34.2472 166.604 34.8443C166.002 35.4359 165.032 35.7372 163.701 35.7372C162.879 35.7372 162.052 35.6057 161.208 35.3373C160.365 35.0744 159.669 34.7128 159.121 34.2636L157.626 36.9642C158.382 37.5613 159.324 38.005 160.458 38.3008C161.592 38.5966 162.77 38.7445 163.991 38.7445C166.336 38.7445 168.138 38.1748 169.392 37.0354C170.647 35.896 171.271 34.1212 171.271 31.711V20.9141H167.705V22.5575H167.7ZM167.119 28.6543C166.829 29.1364 166.429 29.5089 165.914 29.7773C165.399 30.0402 164.813 30.1772 164.156 30.1772C163.498 30.1772 162.912 30.0457 162.397 29.7773C161.882 29.5143 161.477 29.1364 161.181 28.6543C160.885 28.1723 160.737 27.619 160.737 26.9891C160.737 26.3591 160.885 25.7894 161.181 25.3128C161.477 24.8363 161.882 24.4692 162.397 24.2063C162.912 23.9434 163.498 23.8064 164.156 23.8064C164.813 23.8064 165.399 23.9379 165.914 24.2063C166.429 24.4692 166.829 24.8417 167.119 25.3128C167.409 25.7894 167.552 26.3427 167.552 26.9891C167.552 27.6354 167.409 28.1723 167.119 28.6543ZM180.66 31.0865C180.162 31.0865 179.767 30.9386 179.477 30.6428C179.187 30.347 179.044 29.9252 179.044 29.3774V23.8119H182.276V20.9196H179.044V18.0492H175.286V20.9196H173.287V23.8119H175.286V29.4267C175.286 30.9715 175.714 32.1328 176.563 32.9106C177.412 33.6885 178.601 34.0774 180.129 34.0774C180.71 34.0774 181.268 34.0117 181.805 33.8747C182.342 33.7378 182.808 33.5351 183.191 33.2612L182.178 30.6099C181.761 30.9331 181.252 31.092 180.66 31.092V31.0865ZM194.662 21.5769C193.582 21.0072 192.361 20.7224 190.997 20.7224C189.633 20.7224 188.389 21.0072 187.321 21.5769C186.253 22.1466 185.41 22.9354 184.791 23.9379C184.172 24.9403 183.865 26.0962 183.865 27.3944C183.865 28.6927 184.172 29.8266 184.791 30.829C185.41 31.8315 186.253 32.6258 187.321 33.2009C188.389 33.7816 189.617 34.0664 190.997 34.0664C192.377 34.0664 193.582 33.7761 194.662 33.2009C195.735 32.6203 196.579 31.8315 197.192 30.829C197.8 29.8266 198.107 28.6817 198.107 27.3944C198.107 26.1071 197.8 24.9184 197.192 23.9215C196.579 22.9245 195.735 22.1412 194.662 21.5715V21.5769ZM193.867 29.3117C193.577 29.8485 193.183 30.2648 192.684 30.5551C192.186 30.8455 191.621 30.9879 190.997 30.9879C190.372 30.9879 189.808 30.8455 189.31 30.5551C188.811 30.2648 188.417 29.854 188.116 29.3117C187.82 28.7748 187.672 28.1339 187.672 27.3944C187.672 26.6549 187.82 25.9976 188.116 25.4662C188.411 24.9349 188.811 24.524 189.31 24.2392C189.808 23.9488 190.372 23.8064 190.997 23.8064C191.621 23.8064 192.186 23.9488 192.684 24.2392C193.183 24.5295 193.577 24.9403 193.867 25.4662C194.158 25.9976 194.3 26.6385 194.3 27.3944C194.3 28.1504 194.158 28.7748 193.867 29.3117ZM212.93 23.2148C212.465 22.3712 211.824 21.7467 211.013 21.3359C210.202 20.9251 209.282 20.7224 208.252 20.7224C207.146 20.7224 206.154 20.9579 205.289 21.4236C204.779 21.6974 204.335 22.0426 203.963 22.4589V20.9196H200.37V33.8857H204.127V27.4766C204.127 26.6713 204.259 26.014 204.527 25.4991C204.79 24.9842 205.163 24.6007 205.634 24.3542C206.105 24.1077 206.642 23.9817 207.239 23.9817C208.071 23.9817 208.723 24.2337 209.178 24.7267C209.638 25.2252 209.863 25.9976 209.863 27.0384V33.8857H213.62V26.4632C213.62 25.143 213.385 24.0639 212.919 23.2203L212.93 23.2148ZM136.339 14.6694C135.046 14.6694 134 15.7156 134 17.0084C134 18.3012 135.046 19.3474 136.339 19.3474C137.632 19.3474 138.678 18.3012 138.678 17.0084C138.678 15.7156 137.632 14.6694 136.339 14.6694Z" fill="white"/>
</svg>
